PathFileType	4	(X/Y/Z)	D:\TRACE\v60_Jaco2_6-2-23\BothDRS_Motion2_2-platform.trc
DataRate	CameraRate	NumFrames	NumMarkers	Units	OrigDataRate	OrigDataStartFrame	OrigNumFrames
100.00	100.00	      48	5	mm	100.00	5626	      7500
Frame#	Time	Left_Front			Right_Front			Left_Aft			Right_Aft			Post			
		X1	Y1	Z1	X2	Y2	Z2	X3	Y3	Z3	X4	Y4	Z4	X5	Y5	Z5	

5626	56.250	-760.56183	72.33378	-620.58765	809.38275	73.41817	-626.09198	-668.93549	-36.83863	509.40442	773.39886	-39.32932	518.72888	26.27700	1396.05652	-816.62140	
5627	56.260	-761.42334	72.31844	-620.50385	808.82690	73.21468	-626.20166	-669.51672	-36.82677	509.12863	773.18317	-39.46887	518.67334	25.47892	1395.84924	-816.71179	
5628	56.270	-762.15887	72.30794	-620.71875	807.87720	73.01846	-626.13751	-670.15820	-36.79372	509.00308	772.36047	-39.42983	518.45599	24.43645	1395.79150	-817.16772	
5629	56.280	-762.89429	72.22539	-620.82715	807.06818	72.98107	-626.06500	-670.81226	-36.65982	509.02029	771.37018	-39.41111	518.55243	24.05560	1395.56958	-817.45215	
5630	56.290	-763.55969	72.18758	-620.80408	806.25043	72.81069	-626.26416	-671.60309	-36.69815	508.99307	770.90570	-39.63713	518.56427	23.56798	1395.45667	-818.12610	
5631	56.300	-764.05688	72.02280	-620.75745	805.92914	72.73665	-626.20239	-672.11243	-36.60111	509.13623	769.88251	-39.39579	519.05933	22.77766	1395.31335	-819.23346	
5632	56.310	-764.92657	72.02820	-620.71252	805.33801	72.71024	-626.12531	-672.70605	-36.61263	509.15884	768.72058	-39.07722	518.83636	22.35359	1395.09021	-819.75964	
5633	56.320	-765.69257	71.82664	-620.88043	804.35785	72.63831	-626.20190	-673.62512	-36.62022	509.10336	768.55493	-39.10572	518.60284	21.17413	1395.06494	-820.75531	
5634	56.330	-766.71936	71.45291	-621.02655	803.29309	72.12865	-626.38123	-674.20154	-36.36396	508.94818	768.11572	-39.05317	518.64148	20.66753	1394.85889	-821.05048	
5635	56.340	-767.32971	71.41624	-621.22192	802.63440	71.98128	-626.58582	-675.24622	-36.14959	508.94077	766.74219	-38.69627	518.43646	20.08336	1394.27820	-821.00372	
5636	56.350	-767.90179	71.16827	-621.24658	801.98480	71.63448	-626.57544	-676.23029	-35.88895	508.88956	765.97345	-38.38782	518.93475	18.85499	1393.91199	-821.19696	
5637	56.360	-768.94897	70.72495	-621.08032	801.29156	71.42540	-626.39368	-676.88165	-35.67860	508.88699	765.30115	-38.02396	518.88739	17.60628	1393.46729	-821.57690	
5638	56.370	-769.82666	70.45489	-621.28583	800.21057	71.00014	-626.61823	-677.47949	-35.47319	508.85837	764.54852	-37.76062	518.38684	17.11962	1392.96729	-821.63922	
5639	56.380	-770.65857	69.87930	-621.59369	799.47449	70.61541	-626.81921	-678.45105	-35.22941	508.85321	763.92181	-37.45197	518.33813	16.37635	1392.54492	-822.32391	
5640	56.390	-771.43842	69.11131	-621.69080	798.75830	70.20337	-627.00031	-679.40228	-34.82162	508.57590	763.28253	-37.05623	518.32465	15.52280	1391.65771	-823.52930	
5641	56.400	-772.31586	68.65787	-621.56219	797.59174	69.54589	-627.18451	-680.30951	-34.34187	508.46725	761.41705	-36.60437	517.82281	14.35865	1391.00391	-824.95123	
5642	56.410	-773.33008	68.30653	-621.88300	796.59918	69.08365	-627.34149	-681.18933	-34.04992	508.48495	760.89276	-36.37983	517.74066	13.44262	1390.47632	-826.82013	
5643	56.420	-774.24799	68.15882	-622.30090	795.98212	68.74842	-627.44946	-682.05524	-33.63557	508.44376	760.23254	-35.80648	517.63452	12.90410	1389.59668	-828.92358	
5644	56.430	-775.03925	67.57727	-622.36176	795.03925	67.90533	-627.56311	-683.00854	-33.09164	508.30762	759.22687	-35.41162	517.48041	12.25151	1389.19031	-831.08160	
5645	56.440	-775.86383	66.62364	-622.52942	793.89258	66.90929	-628.07867	-684.08502	-32.67064	508.19785	758.17145	-34.85822	517.48474	11.01305	1388.11731	-832.65729	
5646	56.450	-777.17285	65.53024	-622.68341	793.18677	66.42179	-628.12781	-684.99426	-32.41339	508.12436	757.09344	-34.55829	517.40924	10.04780	1387.52124	-834.64709	
5647	56.460	-778.26373	65.22729	-622.92865	791.95538	65.86975	-628.36871	-685.82135	-31.79501	508.01578	756.00800	-34.18644	517.19775	8.90994	1386.50415	-835.88129	
5648	56.470	-778.81866	64.75963	-623.33380	791.10321	65.37598	-628.43317	-687.07214	-31.12442	507.82932	755.42871	-33.58564	517.07953	8.33216	1385.71606	-837.21753	
5649	56.480	-779.69006	64.07037	-623.09698	790.10547	64.66582	-628.73303	-688.24323	-30.54078	507.86801	754.28094	-33.18703	516.89471	6.92514	1384.74536	-838.29401	
5650	56.490	-781.03046	63.50394	-623.56549	789.17279	63.65544	-628.99249	-689.21283	-29.81386	507.89981	753.32587	-32.39081	516.83966	5.57058	1383.88696	-839.10681	
5651	56.500	-782.27197	62.56799	-624.02399	788.02338	63.19582	-629.26544	-690.29004	-29.22293	507.76553	752.20837	-31.80394	516.71930	4.87326	1382.58508	-839.84875	
5652	56.510	-782.96436	61.50278	-624.33514	786.83710	62.12121	-629.55255	-690.93341	-29.39883	507.22147	751.14166	-31.42719	516.46918	4.03209	1381.47571	-841.46143	
5653	56.520	-783.68121	60.48964	-624.26587	786.11670	61.29101	-629.75818	-691.83020	-28.83736	507.09280	750.28595	-30.81106	516.23157	2.61741	1380.24426	-843.13275	
5654	56.530	-785.05652	60.05598	-624.52325	785.02722	60.53616	-630.06000	-692.73218	-28.14886	507.31906	748.79602	-30.02297	516.20184	1.62482	1379.27661	-845.64612	
5655	56.540	-786.15131	59.44943	-625.11499	784.14673	59.85434	-630.13861	-693.89240	-27.28829	506.91534	747.94244	-29.24750	516.06104	0.51267	1378.11719	-848.42175	
5656	56.550	-787.08661	58.13604	-625.19690	782.96448	58.64524	-630.54285	-695.05695	-26.42148	506.65390	747.00549	-28.76752	515.90576	-0.34207	1377.07886	-851.36981	
5657	56.560	-788.01068	56.89684	-625.47473	781.87885	57.77744	-630.96130	-696.09314	-25.94488	506.67499	746.00568	-28.08464	515.61383	-1.21251	1375.47925	-854.32013	
5658	56.570	-789.44415	56.10075	-626.09106	780.72064	56.58936	-631.31097	-697.16260	-25.54046	506.39880	744.97614	-27.34060	515.45789	-2.23120	1374.33936	-857.18549	
5659	56.580	-790.53381	55.31861	-626.10883	779.73120	55.64772	-631.36871	-698.33612	-24.67377	506.07669	743.23401	-26.57350	515.43805	-3.30332	1373.11975	-859.81512	
5660	56.590	-791.31244	54.37717	-626.25366	778.37427	54.73457	-631.87646	-699.08868	-23.92669	506.09906	742.53711	-25.85383	515.26660	-4.68186	1371.63293	-862.24725	
5661	56.600	-792.48688	53.12428	-626.70337	777.44220	53.90146	-632.10095	-700.45795	-22.94633	505.75107	741.65265	-24.96593	514.99969	-5.64343	1370.14941	-864.57959	
5662	56.610	-793.90509	51.95982	-627.11267	776.40649	52.61931	-632.54163	-701.56195	-22.32978	505.52090	740.71484	-24.18590	514.71790	-6.58734	1368.79419	-866.45795	
5663	56.620	-794.80469	50.98259	-627.44391	775.18896	51.43551	-632.87585	-702.20258	-22.21787	505.78864	739.49799	-23.42385	514.53198	-8.06934	1367.25879	-868.16302	
5664	56.630	-795.80530	49.88443	-627.67017	774.22681	50.32980	-632.95001	-703.68079	-20.98868	505.30911	738.05402	-22.53725	514.41852	-9.06157	1365.63293	-869.98743	
5665	56.640	-796.93060	48.72127	-628.19586	773.04230	49.48577	-633.42548	-704.80530	-20.15062	504.96259	737.13965	-21.68801	514.13202	-10.22622	1364.30750	-871.81238	
5666	56.650	-798.31012	47.60777	-628.27179	771.97943	48.39322	-633.68677	-705.83661	-19.30804	504.93866	735.91089	-20.84173	513.90289	-11.29546	1362.66760	-874.12811	
5667	56.660	-799.24683	46.63096	-628.68317	770.84558	47.20964	-633.90314	-706.90240	-18.53741	504.69177	735.14972	-19.92885	513.72852	-12.69546	1361.29370	-876.73749	
5668	56.670	-800.56030	45.47038	-629.16473	769.53003	45.95187	-634.47858	-708.63715	-17.15670	504.06921	733.97070	-19.22606	513.48065	-13.79589	1359.71777	-879.75586	
5669	56.680	-801.45325	43.89016	-629.55389	768.53601	44.80291	-634.75665	-709.34033	-16.76727	504.03418	732.77600	-18.32174	513.30371	-14.94187	1357.87354	-883.11462	
5670	56.690	-802.58881	42.91831	-629.78766	767.38788	43.45023	-635.07062	-710.11499	-15.84734	504.01651	731.28839	-17.50985	513.06958	-15.83911	1356.35120	-886.83582	
5671	56.700	-803.97046	41.82701	-630.09357	766.16510	42.20118	-635.58191	-711.41632	-15.01026	503.65012	730.24408	-16.75904	512.76697	-16.63241	1354.36475	-889.74158	
5672	56.710	-804.98993	40.27048	-630.42322	765.11407	41.07122	-635.79132	-712.88110	-13.81149	503.34515	729.37817	-15.66941	512.48724	-18.47838	1352.78174	-893.12347	
5673	56.720	-806.23328	39.06710	-630.70856	763.95032	39.73243	-636.27753	-714.27875	-12.48496	503.35092	728.26410	-14.70931	512.16846	-19.58356	1351.10303	-896.13843	
